<svg id="Layer_1" data-name="Layer 1" xmlns="http://www.w3.org/2000/svg" viewBox="0 0 24 24"><defs><style>.cls-1{fill:#0e3557;}.cls-2{fill:none;stroke-width:0.65px;}.cls-2,.cls-3{stroke:#fff;stroke-miterlimit:10;}.cls-3{fill:#fff;stroke-width:0.25px;}</style></defs><rect class="cls-1" width="24" height="24"/><g id="chat"><path class="cls-2" d="M12,3a9,9,0,0,0-9,9,8.91,8.91,0,0,0,1.28,4.6L3.13,20.87,7.4,19.72A8.91,8.91,0,0,0,12,21,9,9,0,0,0,12,3Z"/></g><path class="cls-3" d="M11.56,7.55c0-.44.14-.66.43-.66a.39.39,0,0,1,.33.17.87.87,0,0,1,.12.49.87.87,0,0,1-.12.49.38.38,0,0,1-.33.18C11.7,8.22,11.56,8,11.56,7.55Zm.77,9.56h-.68V9.63h.68Z"/></svg>