<svg id="Layer_1" data-name="Layer 1" xmlns="http://www.w3.org/2000/svg" viewBox="0 0 24 24"><defs><style>.cls-1{fill:#1c639f;}.cls-2{fill:#fff;stroke:#1c639f;stroke-miterlimit:10;stroke-width:0.25px;}</style></defs><rect class="cls-1" width="24" height="24"/><path class="cls-2" d="M4.34,20a1.07,1.07,0,0,1-.74-.76L1.16,9.52a1.08,1.08,0,0,1,.78-1.3L17.07,4.41a1.07,1.07,0,0,1,1.29.77l.82,3.25"/><polyline class="cls-2" points="12.14 8.43 18.76 6.76 19.08 8.05"/><polyline class="cls-2" points="3.89 13.05 2.16 13.49 1.56 11.09 4.11 10.45"/><rect class="cls-2" x="5.13" y="8.5" width="17.74" height="12.12" rx="1.55"/><rect class="cls-2" x="5.13" y="11.19" width="17.74" height="2.47"/><line class="cls-2" x1="6.61" y1="15.88" x2="12.32" y2="15.88"/><path class="cls-2" d="M20.83,18a1.08,1.08,0,1,1-1.07-1.08A1.07,1.07,0,0,1,20.83,18Z"/></svg>