<svg id="Layer_1" data-name="Layer 1" xmlns="http://www.w3.org/2000/svg" viewBox="0 0 24 24"><defs><style>.cls-1{fill:#0e3557;}.cls-2{fill:#fff;stroke-width:0.25px;}.cls-2,.cls-3{stroke:#fff;stroke-miterlimit:10;}.cls-3{fill:none;stroke-width:0.65px;}</style></defs><rect class="cls-1" width="24" height="24"/><path class="cls-2" d="M11.09,14.49v-.26a3.38,3.38,0,0,1,.26-1.41,3.93,3.93,0,0,1,1-1.18l.64-.55a2.83,2.83,0,0,0,.72-.85,2,2,0,0,0,.22-1,1.81,1.81,0,0,0-.59-1.42,2.22,2.22,0,0,0-1.54-.53,4.3,4.3,0,0,0-1,.12,5.32,5.32,0,0,0-1.05.4l-.26-.56a6.32,6.32,0,0,1,1.3-.45,4.83,4.83,0,0,1,1.08-.12,2.85,2.85,0,0,1,2,.7,2.48,2.48,0,0,1,.74,1.9,2.39,2.39,0,0,1-.13.84,2.32,2.32,0,0,1-.35.66,4.28,4.28,0,0,1-.55.59l-.72.62a4.46,4.46,0,0,0-.69.69,2.37,2.37,0,0,0-.36.66,3.77,3.77,0,0,0-.1,1v.1Zm-.23,2.11c0-.46.18-.69.56-.69s.58.23.58.69-.2.69-.58.69S10.86,17.06,10.86,16.6Z"/><g id="chat"><path class="cls-3" d="M12,2.75A9.25,9.25,0,0,0,2.75,12a9.15,9.15,0,0,0,1.31,4.73L2.89,21.11l4.38-1.17A9.15,9.15,0,0,0,12,21.25a9.25,9.25,0,0,0,0-18.5Z"/></g></svg>