<svg id="Layer_1" data-name="Layer 1" xmlns="http://www.w3.org/2000/svg" viewBox="0 0 24 24"><defs><style>.cls-1{fill:#0e3557;}.cls-2{fill:#fff;stroke:#fff;stroke-miterlimit:10;stroke-width:0.15px;}</style></defs><rect class="cls-1" width="24" height="24"/><path class="cls-2" d="M18,15.48a8.46,8.46,0,0,0-4.37-2.33A5.49,5.49,0,0,0,17,8,5.27,5.27,0,0,0,12,2.5,5.27,5.27,0,0,0,7,8a5.49,5.49,0,0,0,3.36,5.17A8.5,8.5,0,0,0,3.49,21.5H4a8.05,8.05,0,0,1,16.1,0h.46A8.46,8.46,0,0,0,18,15.48ZM7.46,8A4.8,4.8,0,0,1,12,3a4.8,4.8,0,0,1,4.54,5A4.8,4.8,0,0,1,12,13,4.8,4.8,0,0,1,7.46,8Z"/></svg>