<svg id="Layer_1" data-name="Layer 1" xmlns="http://www.w3.org/2000/svg" viewBox="0 0 24 24"><defs><style>.cls-1{fill:#0e3557;stroke:#0e3557;stroke-miterlimit:10;stroke-width:0.25px;}</style></defs><path class="cls-1" d="M18.65,15.85a9.3,9.3,0,0,0-4.83-2.58,6.07,6.07,0,0,0,3.72-5.72A5.83,5.83,0,0,0,12,1.5,5.83,5.83,0,0,0,6.46,7.55a6.07,6.07,0,0,0,3.72,5.72A9.42,9.42,0,0,0,2.59,22.5h.52a8.89,8.89,0,0,1,17.78,0h.52A9.33,9.33,0,0,0,18.65,15.85ZM7,7.55A5.31,5.31,0,0,1,12,2a5.31,5.31,0,0,1,5,5.54,5.3,5.3,0,0,1-5,5.54A5.3,5.3,0,0,1,7,7.55Z"/></svg>