<svg id="Layer_1" data-name="Layer 1" xmlns="http://www.w3.org/2000/svg" viewBox="0 0 24 24"><defs><style>.cls-1,.cls-3{fill:#dce6ef;}.cls-2{fill:#0e3557;}.cls-2,.cls-3{fill-rule:evenodd;}</style></defs><rect class="cls-1" width="24" height="24"/><path class="cls-2" d="M13,4.15h0a6.62,6.62,0,0,1,6.61,6.61v3.78a16.14,16.14,0,0,0,.75,3,7.36,7.36,0,0,0,1.09,2l.49.6H4.06l.49-.6c1.32-1.6,1.79-4.7,1.84-5V10.76A6.62,6.62,0,0,1,13,4.15Z"/><path class="cls-3" d="M8.91,13.41a.28.28,0,0,0,.28-.29h0v-2a4.56,4.56,0,0,1,3.32-4.36.31.31,0,0,0,.29-.3.29.29,0,0,0-.29-.29.26.26,0,0,0-.15,0,5.1,5.1,0,0,0-3.73,4.91v2h0A.29.29,0,0,0,8.91,13.41Z"/><path class="cls-2" d="M13,2h0a1.75,1.75,0,0,1,1.22.5,1.71,1.71,0,0,1,.5,1.22V5.13L14.27,5a5.89,5.89,0,0,0-.63-.11c-.21,0-.42,0-.64,0h0c-.22,0-.43,0-.64,0a5.89,5.89,0,0,0-.63.11l-.45.1V3.69a1.71,1.71,0,0,1,.5-1.22A1.75,1.75,0,0,1,13,2Zm0,.73h0a1,1,0,0,0-.69.29,1,1,0,0,0-.29.7v.54l.26,0a5.79,5.79,0,0,1,.72,0h0a5.79,5.79,0,0,1,.72,0l.26,0V3.69a1,1,0,0,0-.29-.7A1,1,0,0,0,13,2.7Z"/><path class="cls-2" d="M15.11,19.79v.13a2.13,2.13,0,0,1-.62,1.5,2.12,2.12,0,0,1-3,0,2.13,2.13,0,0,1-.62-1.5v-.13l0-.35h4.16l0,.35ZM14,20.89a1.33,1.33,0,0,0,.38-.71h-2.7a1.33,1.33,0,0,0,.38.71,1.35,1.35,0,0,0,1.94,0Z"/></svg>