<svg id="Layer_1" data-name="Layer 1" xmlns="http://www.w3.org/2000/svg" viewBox="0 0 24 24"><defs><style>.cls-1,.cls-2{fill:#0e3557;}.cls-2{stroke:#fff;stroke-miterlimit:10;stroke-width:0.5px;}</style></defs><g id="gift"><path class="cls-1" d="M9.52,12H2.38V8A.93.93,0,0,1,3.31,7H20.69a.93.93,0,0,1,.93.93v4H14.48"/><line class="cls-2" x1="12" y1="7.04" x2="12" y2="21.62"/><path class="cls-1" d="M20.38,12.31V21a.62.62,0,0,1-.62.62H4.24A.62.62,0,0,1,3.62,21V12.31"/><path class="cls-1" d="M12,7,10.76,4.55c-.5-1-1.24-2.17-2.64-2.17A2.33,2.33,0,0,0,8.12,7H12"/><path class="cls-1" d="M12,7h3.1a1.87,1.87,0,0,0,0-3.73c-1.24,0-1.86,1.24-2.17,1.86L12,7"/></g></svg>