<svg id="Layer_1" data-name="Layer 1" xmlns="http://www.w3.org/2000/svg" viewBox="0 0 24 24"><defs><style>.cls-1,.cls-2{fill:#0e3557;}.cls-2{stroke:#fff;stroke-miterlimit:10;stroke-width:0.15px;}.cls-3{fill:#fff;}</style></defs><path class="cls-1" d="M18.64,3.89H5.36L3.12,9.48v0a1.92,1.92,0,0,0,1.07,1.64V22.07H19.81V11.16a1.92,1.92,0,0,0,1.07-1.64v0Z"/><path class="cls-2" d="M4.58,11.33a2.72,2.72,0,0,0,.91.16,2.41,2.41,0,0,0,2.2-1.26,2.38,2.38,0,0,0,2.14,1.26h.11v10.2H4.58Z"/><path class="cls-2" d="M19.42,21.68H10.33V11.43A2.33,2.33,0,0,0,12,10.19a2.45,2.45,0,0,0,4.31,0,2.41,2.41,0,0,0,2.2,1.26,2.72,2.72,0,0,0,.91-.16Z"/><path class="cls-1" d="M18.18,1.93H5.59V3.38H18.18Z"/><rect class="cls-3" x="12.52" y="15.27" width="4.82" height="0.39" transform="matrix(0.59, -0.81, 0.81, 0.59, -6.34, 18.52)"/><rect class="cls-3" x="12.21" y="14.29" width="2.45" height="0.39" transform="translate(-6.22 16.48) rotate(-52.96)"/><rect class="cls-3" x="14.44" y="16.29" width="2.45" height="0.39" transform="translate(-6.93 19.07) rotate(-52.97)"/><path class="cls-3" d="M9,17.25v-1.2a.4.4,0,0,0,.13-.3.36.36,0,0,0-.34-.39.37.37,0,0,0-.35.39.37.37,0,0,0,.17.31v1.19a.4.4,0,0,0-.15.3.35.35,0,1,0,.7,0A.38.38,0,0,0,9,17.25Z"/><rect class="cls-3" x="6.43" y="6.78" width="3.43" height="0.39" transform="translate(-0.86 12.8) rotate(-73.44)"/><rect class="cls-3" x="11.8" y="5" width="0.39" height="3.81"/><rect class="cls-3" x="15.64" y="5.23" width="0.39" height="3.35" transform="translate(-1.06 3.32) rotate(-11.57)"/></svg>