<svg id="Layer_1" data-name="Layer 1" xmlns="http://www.w3.org/2000/svg" viewBox="0 0 24 24"><defs><style>.cls-1{fill:#0e3557;}.cls-2{font-size:4.48px;fill:#fff;stroke-width:0.15px;font-family:OpenSans, Open Sans;letter-spacing:0.01em;}.cls-2,.cls-3{stroke:#fff;stroke-miterlimit:10;}.cls-3{fill:none;stroke-width:0.15px;}</style></defs><path class="cls-1" d="M19.11,12.19H2.74a1.55,1.55,0,0,1-.32,0v0h0C2.1,12,2,11.79,2,11.36V11.3c0-.78.41-.88.76-.88H16.28V10h-1.1L12,3.56A.84.84,0,0,0,12.22,3a.86.86,0,1,0-.85.85,1.55,1.55,0,0,0,.21,0L14.65,10H6.12L9.17,3.88l.12,0a.87.87,0,1,0-.55-.21L5.59,10H2.74c-.8,0-1.23.48-1.23,1.36v.06A1.16,1.16,0,0,0,2,12.48l2.38,6.91a2.51,2.51,0,0,0,2.51,2.47H15a2.51,2.51,0,0,0,2.51-2.47l2.41-7a1.21,1.21,0,0,0,.38-.77l-.47-.06A.64.64,0,0,1,19.11,12.19ZM11.37,3.37A.38.38,0,1,1,11.74,3,.38.38,0,0,1,11.37,3.37Zm-2.08-.7a.38.38,0,1,1-.38.38A.38.38,0,0,1,9.29,2.67Z"/><path class="cls-1" d="M19.25,5a3.25,3.25,0,1,0,3.24,3.24A3.25,3.25,0,0,0,19.25,5Z"/><text class="cls-2" transform="translate(17.8 9.67)">€</text><path class="cls-3" d="M6.3,13.18H6.15a.65.65,0,0,0-.65.66V19.2a.65.65,0,0,0,.65.65H6.3A.66.66,0,0,0,7,19.2V13.84A.66.66,0,0,0,6.3,13.18Zm.18,6a.18.18,0,0,1-.18.18H6.15A.18.18,0,0,1,6,19.2V13.84a.19.19,0,0,1,.18-.19H6.3a.19.19,0,0,1,.18.19Z"/><path class="cls-3" d="M9.27,13.18H9a.6.6,0,0,0-.6.6v5.47a.6.6,0,0,0,.6.6h.23a.6.6,0,0,0,.61-.6V13.78A.6.6,0,0,0,9.27,13.18Zm.13,6.07a.13.13,0,0,1-.13.13H9a.13.13,0,0,1-.13-.13V13.78A.13.13,0,0,1,9,13.65h.23a.13.13,0,0,1,.13.13Z"/><path class="cls-3" d="M12.16,13.18H12a.6.6,0,0,0-.6.6v5.47a.6.6,0,0,0,.6.6h.16a.6.6,0,0,0,.6-.6V13.78A.6.6,0,0,0,12.16,13.18Zm.12,6.07a.13.13,0,0,1-.12.13H12a.13.13,0,0,1-.13-.13V13.78a.13.13,0,0,1,.13-.13h.16a.13.13,0,0,1,.12.13Z"/><path class="cls-3" d="M15.61,13.18H15.4a.6.6,0,0,0-.6.6v5.47a.6.6,0,0,0,.6.6h.21a.6.6,0,0,0,.6-.6V13.78A.6.6,0,0,0,15.61,13.18Zm.12,6.07a.13.13,0,0,1-.12.13H15.4a.13.13,0,0,1-.13-.13V13.78a.13.13,0,0,1,.13-.13h.21a.13.13,0,0,1,.12.13Z"/></svg>