<svg id="Layer_1" data-name="Layer 1" xmlns="http://www.w3.org/2000/svg" viewBox="0 0 24 24"><defs><style>.cls-1{fill:#0e3557;}.cls-2{fill:none;stroke:#fff;stroke-miterlimit:10;stroke-width:0.65px;}</style></defs><rect class="cls-1" width="24" height="24"/><line class="cls-2" x1="12" y1="3.48" x2="12" y2="2"/><line class="cls-2" x1="12" y1="3.48" x2="12" y2="2.74"/><line class="cls-2" x1="9.7" y1="3.78" x2="9.51" y2="3.07"/><line class="cls-2" x1="7.56" y1="4.67" x2="6.81" y2="3.39"/><line class="cls-2" x1="7.56" y1="4.67" x2="7.19" y2="4.03"/><line class="cls-2" x1="5.71" y1="6.08" x2="5.19" y2="5.56"/><line class="cls-2" x1="18.29" y1="6.08" x2="18.81" y2="5.56"/><line class="cls-2" x1="16.44" y1="4.67" x2="17.19" y2="3.39"/><line class="cls-2" x1="16.44" y1="4.67" x2="16.81" y2="4.03"/><line class="cls-2" x1="14.3" y1="3.78" x2="14.49" y2="3.07"/><polyline class="cls-2" points="6.07 10.15 9.04 7.18 16.45 7.18 16.45 22 6.07 22 6.07 10.89"/><polygon class="cls-2" points="9.04 10.15 6.07 10.15 9.04 7.18 9.04 10.15"/><line class="cls-2" x1="8.3" y1="19.04" x2="9.85" y2="19.04"/><line class="cls-2" x1="10.59" y1="19.04" x2="14.22" y2="19.04"/><line class="cls-2" x1="14.22" y1="16.07" x2="12.67" y2="16.07"/><line class="cls-2" x1="11.93" y1="16.07" x2="8.3" y2="16.07"/><line class="cls-2" x1="8.3" y1="17.59" x2="14.22" y2="17.59"/><line class="cls-2" x1="8.3" y1="13.11" x2="9.85" y2="13.11"/><line class="cls-2" x1="10.59" y1="13.11" x2="14.22" y2="13.11"/><line class="cls-2" x1="14.22" y1="14.56" x2="8.3" y2="14.56"/></svg>