<svg id="Layer_1" data-name="Layer 1" xmlns="http://www.w3.org/2000/svg" viewBox="0 0 24 24"><defs><style>.cls-1{fill:#6190bb;}.cls-2,.cls-3{fill:#fff;stroke:#6190bb;stroke-miterlimit:10;stroke-width:0.25px;}.cls-3{fill-rule:evenodd;}</style></defs><rect class="cls-1" width="24" height="24"/><rect class="cls-2" x="1.47" y="2.37" width="15.19" height="16.73" rx="1.39"/><path class="cls-3" d="M2.86,2H15.27a1.75,1.75,0,0,1,1.24.52A1.73,1.73,0,0,1,17,3.76v14a1.76,1.76,0,0,1-1.75,1.76H2.86a1.76,1.76,0,0,1-1.75-1.76V3.76a1.73,1.73,0,0,1,.51-1.24A1.75,1.75,0,0,1,2.86,2Z"/><path class="cls-3" d="M2.31,2.62,9.84,4.87A1.27,1.27,0,0,1,10.69,6V20.93a.64.64,0,0,1-.85.67L2.31,19.35a1.28,1.28,0,0,1-.84-1.17V3.29A.63.63,0,0,1,2.31,2.62Z"/><path class="cls-3" d="M2.42,2.27,10,4.52a1.5,1.5,0,0,1,.78.58,1.61,1.61,0,0,1,.32.94V20.93a1.36,1.36,0,0,1-.05.36.93.93,0,0,1-.35.51.91.91,0,0,1-.58.2A1.26,1.26,0,0,1,9.74,22L2.21,19.7a1.56,1.56,0,0,1-.79-.58,1.68,1.68,0,0,1-.31-.94V3.29a1,1,0,0,1,0-.36,1,1,0,0,1,.93-.71,1.26,1.26,0,0,1,.33,0Z"/><path class="cls-3" d="M21.65,11.07H12.8a.37.37,0,0,1-.37-.36.38.38,0,0,1,.37-.37h8.86l-2.21-2.2A.37.37,0,0,1,20,7.62l2.79,2.8a.1.1,0,0,1,0,.05.34.34,0,0,1,.09.24.36.36,0,0,1-.09.24l0,.05L20,13.79a.37.37,0,0,1-.52,0,.36.36,0,0,1,0-.51Z"/></svg>